<svg width="16" height="16" viewBox="0 0 16 16" fill="none" xmlns="http://www.w3.org/2000/svg">
<g clip-path="url(#clip0_60_4)">
<rect width="16" height="16" rx="1" fill="#F7DF1E"/>
<path d="M15.1901 13.18C15.4034 13.3667 15.5634 13.54 15.6701 13.7C15.7901 13.86 15.8501 14.06 15.8501 14.3C15.8501 14.5933 15.7234 14.8333 15.4701 15.02C15.2167 15.2067 14.9101 15.3 14.5501 15.3C13.6567 15.3 13.0367 14.8533 12.6901 13.96C12.2901 14.3733 11.8367 14.6933 11.3301 14.92C10.8367 15.1467 10.3101 15.26 9.75008 15.26C8.89674 15.26 8.14341 15.0867 7.49008 14.74C6.83674 14.3933 6.33008 13.92 5.97008 13.32C5.61008 12.72 5.43008 12.04 5.43008 11.28V8.22C5.43008 7.51333 5.30341 7.05333 5.05008 6.84C4.82341 6.65333 4.65008 6.47333 4.53008 6.3C4.42341 6.12667 4.37008 5.91333 4.37008 5.66C4.37008 5.36667 4.50341 5.13333 4.77008 4.96C5.03674 4.78667 5.35008 4.7 5.71008 4.7C6.37675 4.7 6.89675 4.99333 7.27008 5.58C7.65675 6.16667 7.84341 7.05333 7.83008 8.24V10.76C7.83008 11.36 8.03008 11.86 8.43008 12.26C8.84341 12.66 9.33008 12.86 9.89008 12.86C10.6234 12.86 11.2167 12.6533 11.6701 12.24C12.1367 11.8133 12.3701 11.2267 12.3701 10.48C12.4234 7.6 12.4567 6.01333 12.4701 5.72C12.4834 5.38667 12.6101 5.12667 12.8501 4.94C13.1034 4.74 13.3767 4.64 13.6701 4.64C13.9767 4.64 14.2501 4.74 14.4901 4.94C14.7434 5.14 14.8701 5.40667 14.8701 5.74L14.7901 11.78C14.7901 12.0467 14.8167 12.3133 14.8701 12.58C14.9367 12.8467 15.0434 13.0467 15.1901 13.18Z" fill="black"/>
</g>
<defs>
<clipPath id="clip0_60_4">
<rect width="16" height="16" rx="1" fill="white"/>
</clipPath>
</defs>
</svg>
